# xmcd CD database file
#
# Track frame offsets:
#	150
#	23830
#	41545
#	65790
#	86670
#	111452
#	139432
#	183087
#
# Disc length: 2600 seconds
#
# Revision: 0
# Processed by: cddbd v1.5PL3 Copyright (c) Steve Scherf et al.
# Submitted via: CDex 1.51
#
DISCID=710a2608
DTITLE=フジファブリック - アラモルト
DYEAR=2004
DGENRE=Rock
TTITLE0=茜色の夕日
TTITLE1=花屋の娘
TTITLE2=線香花火
TTITLE3=ダンス2000
TTITLE4=環状七号線
TTITLE5=浮雲
TTITLE6=笑ってサヨナラ
TTITLE7=CD-EXTRA
EXTD=YEAR: 2004
EXTT0=
EXTT1=
EXTT2=
EXTT3=
EXTT4=
EXTT5=
EXTT6=
EXTT7=
PLAYORDER=
